<?xml version="1.0" standalone="no"?>
<!DOCTYPE svg PUBLIC "-//W3C//DTD SVG 20010904//EN"
 "http://www.w3.org/TR/2001/REC-SVG-20010904/DTD/svg10.dtd">
<svg version="1.0" xmlns="http://www.w3.org/2000/svg"
 width="298.000000pt" height="188.000000pt" viewBox="0 0 298.000000 188.000000"
 preserveAspectRatio="xMidYMid meet">
<metadata>
Created by potrace 1.10, written by Peter Selinger 2001-2011
</metadata>
<g transform="translate(0.000000,188.000000) scale(0.100000,-0.100000)"
fill="#000000" stroke="none">
<path d="M1250 1543 l0 -328 70 3 70 4 0 138 c0 151 7 178 50 203 45 27 97 22
131 -12 l29 -29 0 -154 0 -153 67 3 68 3 -3 172 c-4 190 -14 225 -71 266 -59
43 -186 43 -242 2 -16 -12 -30 -21 -32 -21 -2 0 -1 52 1 115 l5 115 -72 0 -71
0 0 -327z m100 202 l6 -90 5 85 5 85 2 -92 c2 -111 10 -119 83 -92 91 35 178
18 223 -44 19 -25 21 -46 24 -182 4 -152 4 -153 -19 -160 -38 -12 -46 14 -48
148 -1 131 -6 148 -63 190 -56 42 -156 11 -192 -59 -16 -30 -22 -61 -24 -139
-4 -132 -7 -147 -35 -143 -20 3 -22 10 -27 78 -3 41 -5 146 -5 233 0 86 -3
157 -8 157 -4 0 -3 9 3 20 6 11 10 26 9 33 -1 6 -1 25 0 40 1 25 4 28 29 25
27 -3 27 -4 32 -93z m17 -422 c-2 -32 -3 -8 -3 52 0 61 1 87 3 58 2 -29 2 -78
0 -110z"/>
<path d="M645 1830 c-1 -3 -3 -29 -3 -57 l-1 -53 100 0 99 0 0 -252 0 -253 71
2 70 1 -1 251 -1 251 101 0 100 0 0 58 0 57 -266 0 c-146 0 -267 -2 -269 -5z
m490 -55 c0 -18 -8 -21 -70 -25 -76 -5 -95 -13 -95 -36 0 -8 -4 -12 -10 -9 -7
4 -10 -69 -10 -213 0 -232 -3 -249 -47 -240 -23 4 -30 59 -32 276 -1 136 -10
210 -23 213 -2 0 -38 4 -81 8 -85 9 -92 12 -83 36 5 13 34 15 228 13 215 -3
223 -4 223 -23z"/>
<path d="M2039 1689 c-126 -19 -202 -112 -200 -247 1 -135 111 -232 261 -232
59 0 139 24 174 51 l27 22 -36 37 -37 38 -32 -19 c-61 -37 -173 -20 -210 33
-34 48 -29 49 164 46 l180 -3 0 50 c-1 149 -129 247 -291 224z m122 -41 c52
-17 88 -46 109 -88 40 -79 32 -110 -31 -110 -39 0 -47 7 -30 26 4 5 11 21 15
36 12 50 -72 120 -141 117 l-28 -1 30 -9 c24 -7 21 -7 -17 -4 -43 4 -50 1 -84
-30 -23 -22 -34 -40 -30 -50 3 -9 2 -13 -4 -10 -13 8 -13 3 0 -30 6 -17 14
-24 22 -19 7 4 10 4 6 -1 -4 -4 -3 -16 3 -26 7 -15 6 -19 -5 -19 -21 0 -35
-31 -26 -55 18 -46 100 -95 159 -95 17 0 49 7 71 16 41 17 70 9 56 -14 -9 -15
-94 -42 -131 -42 -50 0 -131 28 -166 57 -116 98 -75 310 68 353 41 12 115 12
154 -2z m-5 -73 c23 -15 60 -73 51 -81 -2 -3 -59 -3 -126 -2 l-121 3 18 35
c35 65 116 86 178 45z"/>
<path d="M220 1183 c-85 -29 -165 -105 -192 -181 -7 -20 -13 -75 -12 -122 0
-72 4 -93 26 -135 58 -110 150 -167 280 -173 94 -5 162 14 231 64 l48 35 -48
43 -48 43 -35 -28 c-97 -77 -243 -48 -297 61 -47 92 -19 206 64 264 37 25 52
30 105 30 66 0 97 -11 138 -50 l25 -23 47 44 47 45 -37 30 c-81 66 -235 91
-342 53z m262 -43 c52 -24 64 -42 42 -61 -12 -10 -24 -8 -61 10 -96 47 -188
38 -262 -26 -56 -48 -81 -101 -81 -178 0 -108 57 -186 160 -220 62 -21 119
-14 184 20 43 23 45 23 61 5 15 -17 14 -19 -10 -38 -42 -33 -94 -47 -180 -46
-92 0 -148 21 -206 76 -39 37 -79 105 -79 135 0 15 -2 16 -11 3 -8 -11 -9 -5
-5 25 4 27 2 35 -4 25 -8 -12 -10 -10 -10 8 0 13 4 21 9 18 4 -3 7 11 4 32 -2
24 0 32 6 24 6 -10 10 -4 15 21 14 72 97 153 189 183 60 20 180 12 239 -16z"/>
<path d="M813 1046 c-133 -43 -200 -156 -172 -287 36 -169 254 -244 412 -140
77 50 118 181 87 276 -17 50 -75 114 -127 137 -56 25 -148 31 -200 14z m193
-51 c63 -33 92 -71 106 -138 21 -99 -28 -196 -118 -233 -48 -20 -160 -18 -209
5 -151 68 -153 292 -5 367 65 34 159 33 226 -1z"/>
<path d="M825 961 c-42 -26 -68 -57 -59 -72 4 -7 3 -10 -3 -6 -15 9 -23 -16
-23 -69 0 -85 59 -154 138 -162 165 -15 235 207 95 303 -45 30 -105 33 -148 6z
m136 -34 c66 -44 76 -146 20 -209 -22 -24 -37 -32 -78 -35 -47 -5 -54 -3 -88
29 -33 30 -39 41 -42 89 -5 64 9 94 56 126 43 29 89 29 132 0z"/>
<path d="M1453 1039 c-29 -11 -53 -24 -53 -29 0 -4 -7 -11 -16 -14 -13 -5 -14
-1 -9 24 l7 30 -66 0 -66 0 0 -237 0 -238 66 1 66 2 -1 133 c-2 148 11 192 59
216 40 20 95 16 125 -10 26 -22 26 -23 28 -181 l2 -158 68 -2 69 -1 -4 180
c-3 169 -4 182 -27 218 -46 74 -155 103 -248 66z m-89 -42 c5 -21 36 -18 84 7
41 21 136 21 170 0 15 -9 38 -30 52 -47 24 -30 25 -38 28 -184 l4 -152 -27 -7
c-14 -4 -30 -3 -35 2 -5 5 -10 63 -11 129 0 71 -6 133 -14 151 -17 41 -63 76
-95 72 -14 -1 -30 1 -35 4 -16 10 -72 -21 -101 -55 -19 -22 -24 -37 -19 -56 4
-20 3 -22 -5 -11 -7 11 -10 -16 -10 -90 0 -130 -5 -150 -35 -150 -14 0 -26 7
-29 18 -9 31 -5 355 5 373 12 24 66 21 73 -4z"/>
<path d="M1982 1041 c-61 -21 -96 -51 -123 -103 -75 -146 12 -312 175 -334 60
-9 106 1 151 32 l38 25 -5 -46 c-10 -86 -78 -125 -185 -106 -31 6 -71 20 -89
30 l-33 20 -25 -46 c-15 -25 -26 -49 -26 -54 0 -4 26 -18 58 -30 46 -18 78
-23 162 -23 94 -1 111 2 155 25 35 18 59 39 80 74 l30 48 5 249 5 248 -62 0
-63 0 0 -30 c0 -36 -2 -37 -35 -6 -24 22 -100 46 -143 46 -9 -1 -41 -9 -70
-19z m186 -46 c42 -24 43 -24 62 -5 11 11 22 20 25 20 3 0 12 3 20 6 8 4 22 1
30 -6 12 -10 15 -46 15 -199 -1 -199 -8 -257 -42 -304 -42 -59 -152 -87 -266
-67 -80 13 -114 32 -95 51 10 10 21 9 55 -2 24 -8 73 -14 109 -14 56 0 71 4
102 28 48 36 71 81 61 116 -4 14 -7 29 -6 33 4 17 -48 18 -84 3 -48 -21 -143
-21 -182 -1 -117 61 -144 227 -50 312 66 60 170 73 246 29z"/>
<path d="M2018 960 c-63 -34 -81 -66 -76 -137 4 -64 24 -99 73 -126 30 -16
126 -17 157 -1 33 17 72 70 62 85 -4 7 -3 9 3 6 16 -10 8 98 -9 122 -47 66
-140 89 -210 51z m136 -25 c60 -29 83 -103 51 -165 -39 -76 -169 -80 -219 -8
-21 29 -20 107 0 137 33 47 110 63 168 36z"/>
<path d="M2622 1042 c-96 -31 -155 -100 -168 -196 -26 -190 168 -327 360 -255
217 81 200 395 -25 454 -68 19 -101 18 -167 -3z m193 -41 c52 -24 91 -66 110
-120 19 -55 19 -77 0 -132 -19 -53 -67 -105 -115 -125 -41 -18 -153 -20 -196
-4 -49 19 -103 80 -119 135 -30 100 13 198 108 243 56 28 156 29 212 3z"/>
<path d="M2636 956 c-114 -68 -109 -233 8 -293 37 -19 96 -19 134 1 38 19 74
65 67 83 -2 8 0 11 5 8 10 -6 15 40 10 95 -3 37 -40 89 -80 110 -47 24 -100
23 -144 -4z m128 -21 c18 -9 40 -28 49 -44 21 -36 22 -112 2 -151 -30 -58
-113 -77 -169 -41 -41 27 -55 57 -56 118 0 100 86 159 174 118z"/>
<path d="M1005 460 c-27 -4 -53 -6 -56 -4 -4 2 -13 -4 -22 -14 -13 -15 -14
-31 -3 -129 12 -116 21 -138 52 -131 17 3 19 13 17 77 l-2 73 47 -44 c123
-115 281 -194 492 -245 107 -26 451 -26 560 0 223 53 411 137 515 229 58 52
67 80 34 101 -12 8 -31 -3 -86 -49 -168 -141 -422 -223 -713 -230 -303 -8
-543 68 -737 233 -29 24 -57 42 -62 39 -5 -4 -13 -1 -17 5 -5 8 -3 9 6 4 9 -6
12 -4 8 6 -4 11 3 14 31 11 20 -2 49 1 64 7 23 9 28 16 25 39 -3 25 -6 27 -53
28 -27 1 -72 -2 -100 -6z m15 -54 c0 -1 -5 -17 -11 -34 -11 -33 -41 -38 -47
-8 -6 29 6 46 33 46 14 0 25 -2 25 -4z"/>
</g>
</svg>
